<svg width="18" height="16" viewBox="0 0 18 16" xmlns="http://www.w3.org/2000/svg"><title>48558E71-3121-4119-BE0E-92B44D57D518</title><path d="M8.777 14.331a.52.52 0 0 1-.382-.156L2.979 8.95a2.865 2.865 0 0 1-.239-.226 8.924 8.924 0 0 1-.482-.568 7.68 7.68 0 0 1-.59-.846 5.256 5.256 0 0 1-.464-1.05A3.802 3.802 0 0 1 1 5.062c0-1.273.367-2.268 1.102-2.986C2.837 1.36 3.852 1 5.15 1c.358 0 .724.062 1.098.187.373.124.72.292 1.041.503.321.211.597.41.829.595.231.185.451.381.66.59.208-.209.428-.405.66-.59.23-.186.507-.384.828-.595a4.444 4.444 0 0 1 1.042-.503A3.46 3.46 0 0 1 12.404 1c1.297 0 2.312.359 3.047 1.076.735.718 1.102 1.713 1.102 2.986 0 1.279-.662 2.58-1.987 3.905l-5.408 5.208a.52.52 0 0 1-.381.156z" stroke="#ff5020" stroke-width="2" fill="none" fill-rule="evenodd"/></svg>