<svg width="145" height="83" viewBox="0 0 145 83" xmlns="http://www.w3.org/2000/svg"><title>8AF451AA-0958-4DB0-A316-5E9D8AE4A3B6</title><path d="M117.1 15.9h19.3V0h-20.9v11.6c-1.3-1.6-4.7-6.2-5.3-7.1-1.3-1.5-2.6-2.6-4.7-3.3-1.8-.8-4.4-1.1-7.7-1.1H79.6v11.2c-3.8-3.7-6.9-6.6-9.5-8.4C67.6 1 64.8.1 61.5.1H0v16h13.5V63c0 2.1-.3 3.7-.6 4.5-.4.9-1.8 1.4-3.9 1.4H.9v13.7h33.2V15.9h20.7c1.9 0 4.2 2.3 6.4 6.7.8 1.3 24.5 60 24.5 60h22.6L81.1 15.9h6.2c3.4 0 5.8 1.1 7.1 3.4 1.3 2.3 26 59.4 27.5 63.2h22.6c-1.3-3.4-26.6-64.5-27.4-66.6z" fill="#FFF" fill-rule="evenodd"/></svg>